<svg width="28" height="28" viewBox="0 0 28 28" fill="none" xmlns="http://www.w3.org/2000/svg">
<path d="M24.5 12.8333V10.5H22.1667V8.16667C22.1648 7.5484 21.9184 6.95598 21.4812 6.51879C21.044 6.08161 20.4516 5.83518 19.8333 5.83333H17.5V3.5H15.1667V5.83333H12.8333V3.5H10.5V5.83333H8.16667C7.5484 5.83518 6.95598 6.08161 6.51879 6.51879C6.08161 6.95598 5.83518 7.5484 5.83333 8.16667V10.5H3.5V12.8333H5.83333V15.1667H3.5V17.5H5.83333V19.8333C5.83518 20.4516 6.08161 21.044 6.51879 21.4812C6.95598 21.9184 7.5484 22.1648 8.16667 22.1667H10.5V24.5H12.8333V22.1667H15.1667V24.5H17.5V22.1667H19.8333C20.4516 22.1648 21.044 21.9184 21.4812 21.4812C21.9184 21.044 22.1648 20.4516 22.1667 19.8333V17.5H24.5V15.1667H22.1667V12.8333H24.5ZM19.8333 19.8333H8.16667V8.16667H19.8333V19.8333Z" fill="black"/>
<path d="M13.2545 9.33325H11.6853L9.34033 18.6666H10.5385L11.0798 16.4791H13.7818L14.3092 18.6666H15.5482L13.2545 9.33325ZM11.2373 15.5446L12.425 10.4416H12.4787L13.6255 15.5446H11.2373ZM16.618 9.33325H17.7847V18.6666H16.618V9.33325Z" fill="black"/>
</svg>
