<svg width="24" height="24" viewBox="0 0 24 24" fill="none" xmlns="http://www.w3.org/2000/svg">
<path d="M23 12C23 5.9247 18.0753 1 12 1C5.9247 1 1 5.9247 1 12C1 18.0753 5.9247 23 12 23" stroke="black" stroke-width="1.5" stroke-linecap="round" stroke-linejoin="round"/>
<path d="M20.8 5.0689C19.7715 5.1426 18.4548 5.5419 17.5418 6.7233C15.8918 8.8573 14.2429 9.0366 13.1429 8.3249C11.4929 7.2579 12.88 5.5276 10.944 4.5882C9.6823 3.9755 9.5063 2.309 10.2092 1M1 10.9C1.8393 11.6282 3.013 12.2948 4.3979 12.2948C7.2579 12.2948 7.8299 12.8415 7.8299 15.0272C7.8299 17.2129 7.8299 17.2129 8.4019 18.8519C8.7737 19.9189 8.9035 20.9837 8.1621 21.9M20.6889 20.7219L23 23M22.0188 17.5506C22.0182 18.1356 21.9024 18.7148 21.678 19.2551C21.4536 19.7954 21.1249 20.2862 20.7109 20.6995C20.2968 21.1127 19.8053 21.4404 19.2646 21.6638C18.7239 21.8871 18.1444 22.0018 17.5594 22.0012C16.9744 22.0018 16.3949 21.8871 15.8542 21.6638C15.3135 21.4404 14.822 21.1127 14.4079 20.6995C13.9939 20.2862 13.6652 19.7954 13.4408 19.2551C13.2164 18.7148 13.1006 18.1356 13.1 17.5506C13.1006 16.9656 13.2164 16.3864 13.4408 15.8461C13.6652 15.3058 13.9939 14.815 14.4079 14.4017C14.822 13.9885 15.3135 13.6608 15.8542 13.4374C16.3949 13.2141 16.9744 13.0994 17.5594 13.1C18.1444 13.0994 18.7239 13.2141 19.2646 13.4374C19.8053 13.6608 20.2968 13.9885 20.7109 14.4017C21.1249 14.815 21.4536 15.3058 21.678 15.8461C21.9024 16.3864 22.0182 16.9656 22.0188 17.5506Z" stroke="black" stroke-width="1.5" stroke-linecap="round" stroke-linejoin="round"/>
</svg>
