<svg width="15" height="27" viewBox="0 0 15 27" fill="none" xmlns="http://www.w3.org/2000/svg">
<path d="M3.92618 5.81367H9.74436M3.92618 5.81367V8.81367H9.74436V5.81367M3.92618 5.81367V4.01367C3.92618 2.21367 5.67164 1.01367 7.41709 1.01367H13.8171C13.8171 1.01367 9.74436 2.21367 9.74436 4.61367V5.81367M1.01709 10.0137C1.01709 9.69541 1.13969 9.39019 1.35791 9.16514C1.57614 8.9401 1.87211 8.81367 2.18073 8.81367H11.4898C11.7984 8.81367 12.0944 8.9401 12.3126 9.16514C12.5309 9.39019 12.6535 9.69541 12.6535 10.0137V21.4137C12.6535 21.4137 12.6535 25.0137 9.16255 25.0137H4.508C1.01709 25.0137 1.01709 21.4137 1.01709 21.4137V10.0137Z" stroke="black" stroke-width="2" stroke-linecap="round" stroke-linejoin="round"/>
</svg>
