<svg width="18" height="16" viewBox="0 0 18 16" fill="none" xmlns="http://www.w3.org/2000/svg">
<path d="M1.616 16C1.15533 16 0.771 15.846 0.463 15.538C0.155 15.23 0.000666667 14.8453 0 14.384V4.616C0 4.15534 0.154333 3.771 0.463 3.463C0.771667 3.155 1.15567 3.00067 1.615 3H6V1.615C6 1.155 6.15433 0.770669 6.463 0.462002C6.77167 0.153335 7.156 -0.000664511 7.616 2.15517e-06H10.385C10.845 2.15517e-06 11.2293 0.154002 11.538 0.462002C11.8467 0.770002 12.0007 1.15434 12 1.615V3H16.385C16.845 3 17.229 3.15434 17.537 3.463C17.845 3.77167 17.9993 4.156 18 4.616V14.385C18 14.845 17.8457 15.2293 17.537 15.538C17.2283 15.8467 16.8443 16.0007 16.385 16H1.616ZM7 3H11V1.615C11 1.46167 10.936 1.32067 10.808 1.192C10.68 1.06334 10.539 0.999335 10.385 1H7.615C7.46167 1 7.32067 1.064 7.192 1.192C7.06333 1.32 6.99933 1.461 7 1.615V3ZM17 10.5H11V12H7V10.5H1V14.385C1 14.5383 1.064 14.6793 1.192 14.808C1.32 14.9367 1.461 15.0007 1.615 15H16.385C16.5383 15 16.6793 14.936 16.808 14.808C16.9367 14.68 17.0007 14.5387 17 14.384V10.5ZM8 11H10V9H8V11ZM1 9.5H7V8H11V9.5H17V4.616C17 4.462 16.936 4.32067 16.808 4.192C16.68 4.06334 16.539 3.99934 16.385 4H1.615C1.46167 4 1.32067 4.064 1.192 4.192C1.06333 4.32 0.999333 4.46134 1 4.616V9.5Z" fill="black"/>
</svg>
