<svg width="22" height="16" viewBox="0 0 22 16" fill="none" xmlns="http://www.w3.org/2000/svg">
<path d="M21.4799 6.37595L15.4047 4.19245L12.8653 1.00402C12.6445 0.734054 12.3663 0.516635 12.051 0.367548C11.7357 0.218461 11.3912 0.141446 11.0424 0.142094H4.75986C4.37564 0.142101 3.99725 0.236027 3.65764 0.415695C3.31802 0.595364 3.02747 0.855327 2.81129 1.17295L0.680429 4.30245C0.237152 4.95401 7.56653e-05 5.72383 0 6.51188V12.7135C0 12.9219 0.0827803 13.1218 0.23013 13.2691C0.37748 13.4165 0.57733 13.4992 0.785714 13.4992H2.46871C2.63963 14.1736 3.03052 14.7717 3.57954 15.1989C4.12855 15.6261 4.80435 15.8581 5.5 15.8581C6.19565 15.8581 6.87145 15.6261 7.42046 15.1989C7.96948 14.7717 8.36037 14.1736 8.53129 13.4992H13.4687C13.6396 14.1736 14.0305 14.7717 14.5795 15.1989C15.1286 15.6261 15.8043 15.8581 16.5 15.8581C17.1957 15.8581 17.8714 15.6261 18.4205 15.1989C18.9695 14.7717 19.3604 14.1736 19.5313 13.4992H21.2143C21.4227 13.4992 21.6225 13.4165 21.7699 13.2691C21.9172 13.1218 22 12.9219 22 12.7135V7.11531C22 6.95351 21.95 6.79567 21.8569 6.66333C21.7638 6.531 21.6321 6.43064 21.4799 6.37595ZM5.5 14.285C5.1892 14.285 4.88538 14.1928 4.62696 14.0201C4.36854 13.8474 4.16713 13.602 4.04819 13.3149C3.92925 13.0277 3.89813 12.7118 3.95877 12.407C4.0194 12.1021 4.16906 11.8221 4.38883 11.6024C4.6086 11.3826 4.8886 11.2329 5.19343 11.1723C5.49826 11.1117 5.81422 11.1428 6.10136 11.2617C6.3885 11.3806 6.63392 11.5821 6.80659 11.8405C6.97927 12.0989 7.07143 12.4027 7.07143 12.7135C7.07081 13.1301 6.90504 13.5294 6.61048 13.824C6.31591 14.1186 5.91658 14.2843 5.5 14.285ZM16.5 14.285C16.1892 14.285 15.8854 14.1928 15.627 14.0201C15.3685 13.8474 15.1671 13.602 15.0482 13.3149C14.9293 13.0277 14.8981 12.7118 14.9588 12.407C15.0194 12.1021 15.1691 11.8221 15.3888 11.6024C15.6086 11.3826 15.8886 11.2329 16.1934 11.1723C16.4983 11.1117 16.8142 11.1428 17.1014 11.2617C17.3885 11.3806 17.6339 11.5821 17.8066 11.8405C17.9793 12.0989 18.0714 12.4027 18.0714 12.7135C18.0708 13.1301 17.905 13.5294 17.6105 13.824C17.3159 14.1186 16.9166 14.2843 16.5 14.285ZM20.4286 11.9278H19.5313C19.3604 11.2535 18.9695 10.6554 18.4205 10.2282C17.8714 9.80095 17.1957 9.56899 16.5 9.56899C15.8043 9.56899 15.1286 9.80095 14.5795 10.2282C14.0305 10.6554 13.6396 11.2535 13.4687 11.9278H8.53129C8.36037 11.2535 7.96948 10.6554 7.42046 10.2282C6.87145 9.80095 6.19565 9.56899 5.5 9.56899C4.80435 9.56899 4.12855 9.80095 3.57954 10.2282C3.03052 10.6554 2.63963 11.2535 2.46871 11.9278H1.57143V6.51188C1.57144 6.0388 1.7138 5.57667 1.98 5.18559L4.11007 2.05767C4.1821 1.95166 4.27896 1.86488 4.39222 1.80489C4.50548 1.74491 4.63169 1.71354 4.75986 1.71352H11.0424C11.1568 1.71354 11.2697 1.73851 11.3734 1.78669C11.4771 1.83486 11.569 1.90509 11.6427 1.99245L14.3141 5.34588C14.405 5.45992 14.5258 5.54643 14.663 5.59574L20.4286 7.66766V11.9278Z" fill="black"/>
</svg>
