<svg width="22" height="22" viewBox="0 0 22 22" fill="none" xmlns="http://www.w3.org/2000/svg">
<path d="M15.6383 10.6058C16.2007 9.95041 16.5068 9.11358 16.5 8.25C16.5 6.545 15.3358 5.10583 13.75 4.7025V2.75H11.9167V4.58333H10.0833V2.75H8.25V4.58333H5.5V6.41667H7.33333V15.5833H5.5V17.4167H8.25V19.25H10.0833V17.4167H11.9167V19.25H13.75V17.4167C15.7758 17.4167 17.4167 15.7758 17.4167 13.75C17.4167 12.4208 16.7017 11.2475 15.6383 10.6058ZM9.16667 6.41667H12.8333C13.8417 6.41667 14.6667 7.24167 14.6667 8.25C14.6667 9.25833 13.8417 10.0833 12.8333 10.0833H9.16667V6.41667ZM13.75 15.5833H9.16667V11.9167H13.75C14.7583 11.9167 15.5833 12.7417 15.5833 13.75C15.5833 14.7583 14.7583 15.5833 13.75 15.5833Z" fill="black"/>
</svg>
