<svg width="20" height="18" viewBox="0 0 20 18" fill="none" xmlns="http://www.w3.org/2000/svg">
<path d="M3.76947 17.6412C3.32375 17.6412 2.95271 17.5082 2.65636 17.2422C2.36001 16.9762 2.21184 16.6207 2.21184 16.1758C2.21184 15.8643 2.3009 15.5927 2.47903 15.361C2.65716 15.1294 2.88481 14.9569 3.16199 14.8434L8.20273 12.8485V8.35529C6.77131 10.0431 5.4605 11.2333 4.27031 11.9259C3.08012 12.6184 1.65668 13.0486 0 13.2163V11.9954C1.21975 11.9187 2.36441 11.5932 3.43398 11.0188C4.50435 10.4437 5.48846 9.63694 6.38629 8.59852L8.00383 6.72816C8.18276 6.52527 8.39324 6.36551 8.63527 6.24889C8.87731 6.13227 9.13252 6.07396 9.40091 6.07396H10.5991C10.8659 6.07396 11.1207 6.13227 11.3635 6.24889C11.6064 6.36551 11.8168 6.52527 11.995 6.72816L13.6125 8.59852C14.5111 9.63694 15.4956 10.4437 16.566 11.0188C17.6364 11.5932 18.7811 11.9187 20 11.9954V13.2175C18.3425 13.0482 16.9191 12.6172 15.7297 11.9247C14.5403 11.2321 13.2295 10.0419 11.7973 8.35409V12.8473L16.8392 14.8434C17.1156 14.9577 17.3428 15.1302 17.521 15.361C17.6991 15.5919 17.7882 15.8635 17.7882 16.1758C17.7882 16.6207 17.64 16.9762 17.3436 17.2422C17.0473 17.5082 16.6763 17.6412 16.2305 17.6412H7.60364V17.4567C7.60364 16.983 7.73904 16.6111 8.00982 16.3411C8.28061 16.0712 8.65205 15.9362 9.12413 15.9362H12.9954C13.1752 15.9362 13.3202 15.881 13.4304 15.7708C13.5406 15.6606 13.5953 15.5156 13.5945 15.3359C13.5937 15.1561 13.539 15.0116 13.4304 14.9021C13.3217 14.7927 13.1768 14.738 12.9954 14.738H9.12533C8.33213 14.738 7.68032 14.9928 7.1699 15.5024C6.65948 16.012 6.40466 16.6631 6.40546 17.4555V17.6412H3.76947ZM10 4.41448C9.43286 4.41448 8.95319 4.21838 8.56099 3.82617C8.16878 3.43317 7.97268 2.9535 7.97268 2.38716C7.97268 1.82082 8.16878 1.34115 8.56099 0.948147C8.95319 0.555144 9.43286 0.358643 10 0.358643C10.5671 0.358643 11.0468 0.555144 11.439 0.948147C11.8312 1.34115 12.0273 1.82082 12.0273 2.38716C12.0273 2.9535 11.8312 3.43317 11.439 3.82617C11.046 4.21838 10.5663 4.41448 10 4.41448Z" fill="black"/>
</svg>
