<svg width="23" height="22" viewBox="0 0 23 22" fill="none" xmlns="http://www.w3.org/2000/svg">
<path d="M17.1501 15.4008H19.5947V2.20011H7.37183V4.40021H17.1501V15.4008ZM17.1501 17.6009V20.8999C17.1501 21.5082 16.6001 22 15.9193 22H1.26893C1.1077 22.001 0.947838 21.9733 0.798554 21.9185C0.64927 21.8636 0.513514 21.7828 0.399106 21.6805C0.284698 21.5783 0.193899 21.4566 0.131939 21.3227C0.0699786 21.1887 0.038082 21.045 0.0380859 20.8999L0.0405303 5.50137C0.0405303 4.89304 0.590561 4.40021 1.27138 4.40021H4.92602V1.10005C4.92602 0.808301 5.0548 0.528498 5.28402 0.322198C5.51325 0.115898 5.82414 0 6.14831 0H20.8158C21.14 0 21.4509 0.115898 21.6801 0.322198C21.9093 0.528498 22.0381 0.808301 22.0381 1.10005V16.5008C22.0381 16.7926 21.9093 17.0724 21.6801 17.2787C21.4509 17.485 21.14 17.6009 20.8158 17.6009H17.1501ZM4.92725 15.4008V17.6009H7.37183V18.7009H9.81641V17.6009H10.4276C11.238 17.6009 12.0152 17.3111 12.5883 16.7954C13.1613 16.2796 13.4833 15.5801 13.4833 14.8507C13.4833 14.1213 13.1613 13.4218 12.5883 12.9061C12.0152 12.3903 11.238 12.1006 10.4276 12.1006H6.76068C6.5986 12.1006 6.44315 12.0426 6.32854 11.9395C6.21392 11.8363 6.14954 11.6964 6.14954 11.5506C6.14954 11.4047 6.21392 11.2648 6.32854 11.1616C6.44315 11.0585 6.5986 11.0005 6.76068 11.0005H12.261V8.80043H9.81641V7.70038H7.37183V8.80043H6.76068C5.95025 8.80043 5.17302 9.09017 4.59996 9.60592C4.0269 10.1217 3.70496 10.8212 3.70496 11.5506C3.70496 12.2799 4.0269 12.9795 4.59996 13.4952C5.17302 14.011 5.95025 14.3007 6.76068 14.3007H10.4276C10.5896 14.3007 10.7451 14.3586 10.8597 14.4618C10.9743 14.5649 11.0387 14.7048 11.0387 14.8507C11.0387 14.9966 10.9743 15.1365 10.8597 15.2397C10.7451 15.3428 10.5896 15.4008 10.4276 15.4008H4.92725Z" fill="black"/>
</svg>
