<svg width="14" height="24" viewBox="0 0 14 24" fill="none" xmlns="http://www.w3.org/2000/svg">
<path d="M9.75356 15.5L10.8549 14.863C12.1091 14.1373 12.7356 13.7745 12.8196 13.2577C12.832 13.177 12.8359 13.0953 12.8312 13.0138C12.7892 12.4935 12.1942 12.0922 11.0054 11.2895L5.51389 7.583C3.35672 6.127 2.86089 3.47167 4.37522 1.5M11.6669 4.41667C11.6669 4.8808 11.4825 5.32591 11.1543 5.6541C10.8261 5.98229 10.381 6.16667 9.91689 6.16667C9.45276 6.16667 9.00764 5.98229 8.67945 5.6541C8.35126 5.32591 8.16689 4.8808 8.16689 4.41667C8.16689 3.95254 8.35126 3.50742 8.67945 3.17923C9.00764 2.85104 9.45276 2.66667 9.91689 2.66667C10.381 2.66667 10.8261 2.85104 11.1543 3.17923C11.4825 3.50742 11.6669 3.95254 11.6669 4.41667Z" stroke="black" stroke-width="1.5" stroke-linecap="round" stroke-linejoin="round"/>
<path d="M5.51387 7.583C2.5972 10.4997 1.16687 18.5707 1.16687 22.5M5.51387 7.583C3.3567 6.127 2.86087 3.47167 4.3752 1.5M5.51387 7.583L8.60087 9.66667M9.75354 15.5L10.8549 14.863C12.109 14.1373 12.7355 13.7745 12.8195 13.2577C12.8319 13.177 12.8359 13.0953 12.8312 13.0138C12.7892 12.4935 12.1942 12.0922 11.0054 11.2895L8.60204 9.66667C7.79302 10.7137 7.10059 11.8458 6.53704 13.043C6.0237 14.1245 5.7682 14.6647 5.81604 15.283L2.33354 14.3333M10.5002 22.5C9.36504 21.1758 8.1972 19.35 7.05854 17.6677C6.2617 16.4893 5.8627 15.899 5.81604 15.2818" stroke="black" stroke-width="1.5" stroke-linecap="round" stroke-linejoin="round"/>
</svg>
