<svg width="24" height="24" viewBox="0 0 24 24" fill="none" xmlns="http://www.w3.org/2000/svg">
<path d="M17.25 7C17.25 6.80109 17.171 6.61032 17.0303 6.46967C16.8897 6.32902 16.6989 6.25 16.5 6.25C16.3011 6.25 16.1103 6.32902 15.9697 6.46967C15.829 6.61032 15.75 6.80109 15.75 7V8.25H14.5C14.3011 8.25 14.1103 8.32902 13.9697 8.46967C13.829 8.61032 13.75 8.80109 13.75 9C13.75 9.19891 13.829 9.38968 13.9697 9.53033C14.1103 9.67098 14.3011 9.75 14.5 9.75H15.75V11C15.75 11.1989 15.829 11.3897 15.9697 11.5303C16.1103 11.671 16.3011 11.75 16.5 11.75C16.6989 11.75 16.8897 11.671 17.0303 11.5303C17.171 11.3897 17.25 11.1989 17.25 11V9.75H18.5C18.6989 9.75 18.8897 9.67098 19.0303 9.53033C19.171 9.38968 19.25 9.19891 19.25 9C19.25 8.80109 19.171 8.61032 19.0303 8.46967C18.8897 8.32902 18.6989 8.25 18.5 8.25H17.25V7Z" fill="black"/>
<path fill-rule="evenodd" clip-rule="evenodd" d="M22.75 9.31803C22.75 5.99203 21.268 3.51003 18.96 2.60703C16.825 1.77003 14.262 2.39603 12 4.51303C9.738 2.39603 7.175 1.77003 5.04 2.60703C2.732 3.51003 1.25 5.99203 1.25 9.31703C1.25 11.436 2.38 13.52 3.787 15.314C5.209 17.127 6.997 18.75 8.489 19.961L8.623 20.071C9.823 21.046 10.691 21.751 12 21.751C13.31 21.751 14.176 21.046 15.377 20.071L15.511 19.961C17.003 18.751 18.791 17.127 20.213 15.314C21.62 13.52 22.75 11.436 22.75 9.31803ZM12.548 6.08703C14.66 3.82803 16.849 3.39103 18.414 4.00303C19.982 4.61703 21.25 6.41303 21.25 9.31803C21.25 10.929 20.37 12.682 19.032 14.388C17.708 16.078 16.016 17.62 14.566 18.797C13.173 19.927 12.723 20.25 12 20.25C11.277 20.25 10.827 19.927 9.434 18.796C7.984 17.62 6.292 16.077 4.968 14.389C3.629 12.682 2.75 10.929 2.75 9.31803C2.75 6.41303 4.018 4.61803 5.586 4.00303C7.151 3.39103 9.34 3.82803 11.452 6.08703C11.5222 6.16212 11.607 6.22199 11.7013 6.26292C11.7956 6.30385 11.8972 6.32498 12 6.32498C12.1028 6.32498 12.2044 6.30385 12.2987 6.26292C12.393 6.22199 12.4778 6.16212 12.548 6.08703Z" fill="black"/>
</svg>
