<svg width="20" height="20" viewBox="0 0 20 20" fill="none" xmlns="http://www.w3.org/2000/svg">
<path fill-rule="evenodd" clip-rule="evenodd" d="M3.07904 3.06902C6.87404 -0.720979 13.044 -0.680979 16.862 3.13802C20.682 6.95802 20.722 13.131 16.926 16.926C13.131 20.721 6.95804 20.682 3.13804 16.862C2.06354 15.792 1.25169 14.4874 0.766215 13.0508C0.280744 11.6141 0.134868 10.0845 0.34004 8.58202C0.36696 8.38483 0.471109 8.20641 0.629578 8.08602C0.788046 7.96562 0.987852 7.9131 1.18504 7.94002C1.38223 7.96694 1.56065 8.07109 1.68105 8.22956C1.80144 8.38803 1.85396 8.58783 1.82704 8.78502C1.65288 10.0583 1.77635 11.3547 2.18775 12.5722C2.59914 13.7898 3.28726 14.8953 4.19804 15.802C7.44304 19.046 12.666 19.065 15.866 15.866C19.065 12.666 19.046 7.44302 15.802 4.19802C12.559 0.956021 7.33904 0.935022 4.13904 4.13002L4.88704 4.13302C4.98553 4.13348 5.08297 4.15334 5.17379 4.19145C5.2646 4.22957 5.34703 4.2852 5.41635 4.35517C5.48566 4.42514 5.54052 4.50807 5.57779 4.59924C5.61506 4.69041 5.634 4.78803 5.63354 4.88652C5.63308 4.98501 5.61323 5.08245 5.57511 5.17327C5.53699 5.26409 5.48136 5.34651 5.4114 5.41583C5.34143 5.48515 5.25849 5.54 5.16732 5.57727C5.07615 5.61454 4.97853 5.63348 4.88004 5.63302L2.33404 5.62102C2.13634 5.61997 1.94705 5.5409 1.80735 5.40101C1.66765 5.26112 1.58883 5.07172 1.58804 4.87402L1.57504 2.33002C1.57451 2.23153 1.59339 2.1339 1.6306 2.0427C1.66781 1.95151 1.72261 1.86854 1.79188 1.79852C1.86115 1.7285 1.94354 1.67282 2.03433 1.63464C2.12513 1.59647 2.22255 1.57655 2.32104 1.57602C2.41953 1.5755 2.51716 1.59438 2.60836 1.63158C2.69955 1.66879 2.78253 1.72359 2.85254 1.79286C2.92256 1.86214 2.97824 1.94452 3.01642 2.03531C3.0546 2.12611 3.07451 2.22353 3.07504 2.32202L3.07904 3.06902ZM9.99904 5.24902C10.198 5.24902 10.3887 5.32804 10.5294 5.46869C10.67 5.60934 10.749 5.80011 10.749 5.99902V9.68902L13.03 11.969C13.1017 12.0382 13.1589 12.1209 13.1982 12.2124C13.2376 12.3039 13.2583 12.4023 13.2592 12.5019C13.2601 12.6014 13.2412 12.7002 13.2035 12.7924C13.1659 12.8846 13.1102 12.9684 13.0398 13.0388C12.9695 13.1093 12.8857 13.165 12.7936 13.2027C12.7014 13.2405 12.6027 13.2595 12.5031 13.2587C12.4035 13.2579 12.3051 13.2372 12.2136 13.198C12.122 13.1587 12.0393 13.1016 11.97 13.03L9.25004 10.31V6.00002C9.25004 5.80111 9.32906 5.61034 9.46971 5.46969C9.61036 5.32904 9.80113 5.25002 10 5.25002" fill="black"/>
</svg>
