<svg width="22" height="24" viewBox="0 0 22 24" fill="none" xmlns="http://www.w3.org/2000/svg">
<path d="M13.1644 13.4992C12.5682 14.1788 11.8422 14.7349 11.0251 15.138V17.455C11.0251 17.6598 10.9438 17.8563 10.7989 18.0011C10.6541 18.1459 10.4576 18.2273 10.2528 18.2273H5.61889C5.41406 18.2273 5.21762 18.1459 5.07278 18.0011C4.92794 17.8563 4.84657 17.6598 4.84657 17.455V15.138C3.21906 14.3257 1.97485 12.9077 1.38094 11.1884C0.787031 9.46907 0.890753 7.58545 1.66985 5.94175C2.44894 4.29805 3.84133 3.02525 5.54819 2.39649C7.25506 1.76772 9.14039 1.8331 10.7996 2.5786M4.84657 22.041H11.0251" stroke="black" stroke-width="2" stroke-linecap="round" stroke-linejoin="round"/>
<path d="M11.6029 7.2654C11.0607 7.17117 11.0607 6.39268 11.6029 6.29845C12.5629 6.13138 13.4513 5.68221 14.155 5.00823C14.8587 4.33424 15.3458 3.46596 15.5541 2.51409L15.5865 2.36272C15.7039 1.82673 16.467 1.82364 16.589 2.35809L16.6292 2.53263C16.8455 3.48019 17.3369 4.34272 18.0418 5.01189C18.7467 5.68106 19.6336 6.12704 20.5912 6.29382C21.1364 6.38959 21.1364 7.17117 20.5912 7.26694C19.6339 7.434 18.7474 7.88011 18.0428 8.54926C17.3382 9.21841 16.8469 10.0808 16.6307 11.0281L16.5905 11.2027C16.4685 11.7371 15.7055 11.734 15.5881 11.198L15.5572 11.0482C15.3487 10.0959 14.8612 9.22734 14.1569 8.55331C13.4526 7.87928 12.5634 7.43191 11.6029 7.2654Z" stroke="black" stroke-width="2" stroke-linecap="round" stroke-linejoin="round"/>
</svg>
