<svg width="72" height="72" viewBox="0 0 72 72" fill="none" xmlns="http://www.w3.org/2000/svg">
<path fill-rule="evenodd" clip-rule="evenodd" d="M36 63C39.5457 63 43.0567 62.3016 46.3325 60.9447C49.6082 59.5879 52.5847 57.5991 55.0919 55.0919C57.5991 52.5847 59.5879 49.6082 60.9447 46.3325C62.3016 43.0567 63 39.5457 63 36C63 32.4543 62.3016 28.9433 60.9447 25.6675C59.5879 22.3918 57.5991 19.4153 55.0919 16.9081C52.5847 14.4009 49.6082 12.4121 46.3325 11.0553C43.0567 9.69838 39.5457 9 36 9C28.8392 9 21.9716 11.8446 16.9081 16.9081C11.8446 21.9716 9 28.8392 9 36C9 43.1608 11.8446 50.0284 16.9081 55.0919C21.9716 60.1554 28.8392 63 36 63ZM36 69C54.225 69 69 54.225 69 36C69 17.775 54.225 3 36 3C17.775 3 3 17.775 3 36C3 54.225 17.775 69 36 69Z" fill="black"/>
<path d="M48 36L30 48.99V23.01L48 36Z" fill="black"/>
</svg>
