<svg width="28" height="16" viewBox="0 0 28 16" fill="none" xmlns="http://www.w3.org/2000/svg">
<path d="M12.0174 0.0248858L9.89797 2.14433C9.26338 2.31853 8.67442 2.6379 8.1767 3.07755L7.07343 4.06054C6.65037 4.43797 6.09873 4.64536 5.53051 4.64536H4.70927V9.95434C5.55539 9.97922 6.36003 10.3235 6.96144 10.9249L8.438 12.4014L8.72834 12.6918L9.8482 13.8116C10.1054 14.0688 10.5284 14.0688 10.7856 13.8116C10.8561 13.7411 10.91 13.6582 10.939 13.5711C11.0552 13.2517 11.3248 13.0111 11.6566 12.9365C11.9884 12.8618 12.3368 12.9614 12.5773 13.2061L13.0253 13.6457C13.5064 14.1269 14.2862 14.1269 14.7632 13.6457C14.9871 13.4218 15.1074 13.1356 15.1198 12.8411C15.1364 12.4761 15.3521 12.1526 15.6839 11.995C16.0157 11.8374 16.4015 11.8705 16.696 12.0821C17.0858 12.36 17.6292 12.3226 17.9776 11.9742C18.3675 11.5844 18.3675 10.9539 17.9776 10.5682L14.8337 7.42427L13.3488 8.793C12.2165 9.8382 10.4786 9.85479 9.3256 8.83032C8.0108 7.66069 7.98176 5.62005 9.25923 4.41309L12.1667 1.66735C13.3032 0.59726 14.8046 0 16.3683 0C17.8656 0 19.3131 0.551636 20.4288 1.54292L21.6773 2.65449H26.6088C26.9738 2.65449 27.2724 2.95312 27.2724 3.31811V11.9452C27.2724 12.6793 26.6793 13.2724 25.9452 13.2724H24.6179C24.1285 13.2724 23.6972 13.007 23.469 12.6088H19.9477C19.8067 12.8867 19.62 13.1522 19.3878 13.3844C18.6785 14.0937 17.6955 14.3716 16.7748 14.2181C16.6254 14.5209 16.4222 14.8029 16.1692 15.0559C15.0369 16.1882 13.2659 16.3002 12.005 15.3919C10.9639 16.2546 9.4127 16.2007 8.438 15.2218L7.32229 14.102L7.03195 13.8116L5.55539 12.3351C5.32727 12.107 5.02864 11.9742 4.70927 11.9493C4.70927 12.6793 4.11201 13.2724 3.38203 13.2724H2.05478C1.32065 13.2724 0.727539 12.6793 0.727539 11.9452V3.31811C0.727539 2.95312 1.02617 2.65449 1.39116 2.65449H5.53051C5.61346 2.65449 5.69226 2.62546 5.75033 2.57154L6.84946 1.59269C8.00665 0.568227 9.49565 0 11.0427 0H11.4699C11.6524 0 11.8391 0.00829521 12.0174 0.0248858ZM23.2907 10.618V4.64536H21.2998C21.0551 4.64536 20.8187 4.55411 20.6404 4.39235L19.1099 3.03192C18.355 2.36001 17.3803 1.99087 16.3683 1.99087C15.3148 1.99087 14.3028 2.39319 13.5355 3.11488L10.628 5.86061C10.2007 6.26708 10.209 6.95144 10.6487 7.34132C11.0344 7.68558 11.6192 7.67728 11.9967 7.32888L14.9788 4.57485C15.3812 4.20156 16.0116 4.22644 16.3849 4.63291C16.7582 5.03938 16.7333 5.66568 16.3268 6.03896L16.2936 6.07214L19.3795 9.15799C19.7942 9.57275 20.0638 10.0829 20.1841 10.6138H23.2866L23.2907 10.618ZM3.38203 11.2816C3.38203 11.1056 3.31211 10.9368 3.18766 10.8123C3.0632 10.6879 2.89441 10.618 2.71841 10.618C2.5424 10.618 2.37361 10.6879 2.24915 10.8123C2.1247 10.9368 2.05478 11.1056 2.05478 11.2816C2.05478 11.4576 2.1247 11.6264 2.24915 11.7508C2.37361 11.8753 2.5424 11.9452 2.71841 11.9452C2.89441 11.9452 3.0632 11.8753 3.18766 11.7508C3.31211 11.6264 3.38203 11.4576 3.38203 11.2816ZM25.2816 11.9452C25.4576 11.9452 25.6264 11.8753 25.7508 11.7508C25.8753 11.6264 25.9452 11.4576 25.9452 11.2816C25.9452 11.1056 25.8753 10.9368 25.7508 10.8123C25.6264 10.6879 25.4576 10.618 25.2816 10.618C25.1056 10.618 24.9368 10.6879 24.8123 10.8123C24.6879 10.9368 24.6179 11.1056 24.6179 11.2816C24.6179 11.4576 24.6879 11.6264 24.8123 11.7508C24.9368 11.8753 25.1056 11.9452 25.2816 11.9452Z" fill="black"/>
</svg>
