<svg width="20" height="18" viewBox="0 0 20 18" fill="none" xmlns="http://www.w3.org/2000/svg">
<path d="M2.99952 18C2.14952 18 1.54552 17.621 1.18752 16.863C0.829525 16.105 0.916858 15.4007 1.44952 14.75L6.99952 8V2H5.99952C5.71619 2 5.47886 1.904 5.28752 1.712C5.09619 1.52 5.00019 1.28267 4.99952 1C4.99886 0.717333 5.09486 0.48 5.28752 0.288C5.48019 0.0960001 5.71752 0 5.99952 0H13.9995C14.2829 0 14.5205 0.0960001 14.7125 0.288C14.9045 0.48 15.0002 0.717333 14.9995 1C14.9989 1.28267 14.9029 1.52033 14.7115 1.713C14.5202 1.90567 14.2829 2.00133 13.9995 2H12.9995V8L18.5495 14.75C19.0829 15.4 19.1705 16.1043 18.8125 16.863C18.4545 17.6217 17.8502 18.0007 16.9995 18H2.99952ZM2.99952 16H16.9995L10.9995 8.7V2H8.99953V8.7L2.99952 16Z" fill="black"/>
</svg>
