<svg width="20" height="20" viewBox="0 0 20 20" fill="none" xmlns="http://www.w3.org/2000/svg">
<path d="M16.0672 9.19219C16.0091 9.2503 15.9402 9.2964 15.8643 9.32785C15.7884 9.35931 15.7071 9.37549 15.625 9.37549C15.5428 9.37549 15.4615 9.35931 15.3856 9.32785C15.3098 9.2964 15.2408 9.2503 15.1828 9.19219L10.625 4.6336V16.875C10.625 17.0408 10.5591 17.1997 10.4419 17.3169C10.3247 17.4342 10.1657 17.5 9.99998 17.5C9.83422 17.5 9.67525 17.4342 9.55804 17.3169C9.44083 17.1997 9.37498 17.0408 9.37498 16.875V4.6336L4.81717 9.19219C4.69989 9.30947 4.54083 9.37535 4.37498 9.37535C4.20913 9.37535 4.05007 9.30947 3.93279 9.19219C3.81552 9.07492 3.74963 8.91586 3.74963 8.75C3.74963 8.58415 3.81552 8.42509 3.93279 8.30782L9.55779 2.68282C9.61584 2.62471 9.68477 2.57861 9.76064 2.54715C9.83652 2.5157 9.91785 2.49951 9.99998 2.49951C10.0821 2.49951 10.1634 2.5157 10.2393 2.54715C10.3152 2.57861 10.3841 2.62471 10.4422 2.68282L16.0672 8.30782C16.1253 8.36586 16.1714 8.43479 16.2028 8.51067C16.2343 8.58654 16.2505 8.66787 16.2505 8.75C16.2505 8.83214 16.2343 8.91347 16.2028 8.98934C16.1714 9.06522 16.1253 9.13415 16.0672 9.19219Z" fill="white"/>
</svg>
