<svg width="12" height="12" viewBox="0 0 12 12" fill="none" xmlns="http://www.w3.org/2000/svg">
<g clip-path="url(#clip0_755_5135)">
<path d="M5.625 7.89844V2.25C5.625 2.03906 5.78906 1.875 6 1.875C6.21094 1.875 6.375 2.03906 6.375 2.25V7.89844H5.625ZM5.625 8.63672H6.375V9.33984H5.625V8.63672ZM0 6C0 2.68359 2.68359 0 6 0C9.31641 0 12 2.68359 12 6C12 9.31641 9.31641 12 6 12C2.68359 12 0 9.31641 0 6ZM11.2617 6C11.2617 3.10547 8.89453 0.75 6 0.75C3.10547 0.75 0.75 3.10547 0.75 6C0.75 8.89453 3.10547 11.25 6 11.25C8.89453 11.25 11.2617 8.89453 11.2617 6Z" fill="#30D5C8"/>
</g>
<defs>
<clipPath id="clip0_755_5135">
<rect width="12" height="12" fill="white"/>
</clipPath>
</defs>
</svg>
