<svg width="42" height="32" viewBox="0 0 42 32" fill="none" xmlns="http://www.w3.org/2000/svg">
<path d="M8.06565 2.4144C13.6088 2.1381 17.9202 2 20.9999 2C24.08 2 28.393 2.1382 33.9389 2.4145C36.941 2.5641 39.3691 4.9119 39.6195 7.9072C39.8731 10.9412 40 13.6134 40 15.9238C40 18.2626 39.87 20.972 39.6101 24.0522C39.3605 27.0103 36.9852 29.3412 34.0229 29.5349C29.2815 29.845 24.9405 30 20.9999 30C17.0599 30 12.7206 29.845 7.98175 29.5351C5.02047 29.3414 2.64565 27.0119 2.39483 24.055C2.13161 20.9518 2 18.2414 2 15.9238C2 13.6341 2.12846 10.961 2.3854 7.9044C2.63708 4.9103 5.06469 2.564 8.06565 2.4144Z" fill="#2F88FF" stroke="black" stroke-width="4" stroke-linejoin="round"/>
<path d="M18.002 11.6092V20.406C18.002 20.8794 18.3858 21.2631 18.8591 21.2631C19.0272 21.2631 19.1916 21.2137 19.3318 21.1211L25.9294 16.7605C26.3243 16.4995 26.4328 15.9677 26.1718 15.5728C26.1094 15.4784 26.0289 15.3973 25.935 15.3341L19.3374 10.8979C18.9446 10.6337 18.412 10.7381 18.1478 11.1309C18.0528 11.2723 18.002 11.4388 18.002 11.6092Z" fill="#43CCF8" stroke="white" stroke-width="3.429" stroke-linejoin="round"/>
</svg>
