<svg width="18" height="18" viewBox="0 0 18 18" fill="none" xmlns="http://www.w3.org/2000/svg">
<path d="M6.957 17.0866L4.867 13.1406L0.901001 11.0306L1.984 9.95357L5.436 10.5406L8.486 7.49057L0.984001 4.28857L2.372 2.90857L11.497 4.47357L14.617 1.33457C14.897 1.05391 15.2403 0.913574 15.647 0.913574C16.0537 0.913574 16.397 1.05391 16.677 1.33457C16.9583 1.61524 17.099 1.95791 17.099 2.36257C17.099 2.76724 16.9587 3.10991 16.678 3.39057L13.533 6.51557L15.099 15.6356L13.705 17.0296L10.516 9.52757L7.466 12.5776L8.039 16.0046L6.957 17.0866Z" fill="black"/>
</svg>
