<svg width="24" height="24" viewBox="0 0 24 24" fill="none" xmlns="http://www.w3.org/2000/svg">
<g clip-path="url(#clip0_848_13401)">
<path d="M20.1281 19.6594C20.1252 19.6513 20.1217 19.6435 20.1178 19.6359L15.854 10.5553L17.7759 7.53844C17.7796 7.533 17.7831 7.52737 17.7862 7.52156C17.926 7.28848 17.9999 7.02179 17.9999 6.75C17.9999 6.47821 17.926 6.21152 17.7862 5.97844C17.7778 5.96344 17.7675 5.94844 17.7581 5.93437L15.75 3.06563V0.75C15.75 0.551088 15.671 0.360322 15.5303 0.21967C15.3896 0.0790176 15.1989 0 15 0C14.8011 0 14.6103 0.0790176 14.4696 0.21967C14.329 0.360322 14.25 0.551088 14.25 0.75V3.03937L13.7568 3.65625C13.5461 3.91971 13.2787 4.13239 12.9746 4.27855C12.6705 4.4247 12.3374 4.50059 12 4.50059C11.6626 4.50059 11.3295 4.4247 11.0254 4.27855C10.7212 4.13239 10.4539 3.91971 10.2431 3.65625L9.74997 3.03937V0.75C9.74997 0.551088 9.67095 0.360322 9.5303 0.21967C9.38965 0.0790176 9.19888 0 8.99997 0C8.80106 0 8.61029 0.0790176 8.46964 0.21967C8.32899 0.360322 8.24997 0.551088 8.24997 0.75V3.06563L6.24185 5.93437C6.23247 5.94844 6.22216 5.96344 6.21372 5.97844C6.07392 6.21152 6.00007 6.47821 6.00007 6.75C6.00007 7.02179 6.07392 7.28848 6.21372 7.52156C6.21686 7.52737 6.2203 7.533 6.22403 7.53844L8.14591 10.5553L3.88216 19.6359C3.87819 19.6435 3.87474 19.6513 3.87185 19.6594C3.77414 19.8875 3.73455 20.1362 3.75662 20.3834C3.77868 20.6306 3.86172 20.8684 3.99829 21.0756C4.13486 21.2827 4.3207 21.4528 4.53915 21.5705C4.75759 21.6882 5.00183 21.7499 5.24997 21.75H18.75C18.9982 21.75 19.2425 21.6885 19.4611 21.5708C19.6797 21.4532 19.8656 21.2832 20.0023 21.076C20.139 20.8687 20.2221 20.6309 20.2442 20.3836C20.2664 20.1364 20.2268 19.8875 20.129 19.6594H20.1281ZM7.49997 6.75L9.04028 4.55344L9.07122 4.59281C9.42253 5.03214 9.86818 5.38681 10.3752 5.63054C10.8821 5.87427 11.4374 6.00082 12 6.00082C12.5625 6.00082 13.1178 5.87427 13.6248 5.63054C14.1318 5.38681 14.5774 5.03214 14.9287 4.59281L14.9597 4.55344L16.5 6.75L14.5893 9.75H9.41153L7.49997 6.75ZM5.24997 20.25L9.47528 11.25H14.5228L18.75 20.25H5.24997Z" fill="black"/>
</g>
<defs>
<clipPath id="clip0_848_13401">
<rect width="24" height="24" fill="white"/>
</clipPath>
</defs>
</svg>
